<svg width="145" height="40" viewBox="0 0 145 40" fill="none" xmlns="http://www.w3.org/2000/svg">
    <path d="M18.082 0h1.07l.397.119c.842.238 1.483.735 1.892 1.504.282.532.518 1.089.77 1.636.341.736.678 1.474 1.016 2.213l.98 2.133 1.01 2.201.984 2.148a4497.6 4497.6 0 0 1 1.844 4.015 2438.052 2438.052 0 0 0 1.78 3.868c-.078.05-.16.094-.232.151a1793.153 1793.153 0 0 0-3.001 2.377c-.487.384-.977.766-1.464 1.15-.507.4-1.013.801-1.517 1.203l-1.355 1.074a2156.498 2156.498 0 0 1-3.13 2.475c-.167.13-.34.25-.509.375l-.684-.536a868.284 868.284 0 0 1-2.708-2.143l-1.46-1.15-1.514-1.2-1.342-1.06-1.514-1.2c-.455-.362-.907-.725-1.365-1.082-.192-.15-.394-.289-.591-.432.317-.699.631-1.398.951-2.096.257-.561.523-1.119.78-1.68a6378.426 6378.426 0 0 1 2.397-5.235c.202-.436.408-.871.609-1.308a1244.863 1244.863 0 0 1 2.467-5.38l.368-.793c.271-.581.518-1.176.817-1.741.383-.726.994-1.204 1.776-1.457.158-.053.319-.1.478-.149z" fill="#5A778A"/>
    <path d="M0 36.283c.053-.186.09-.377.16-.555.133-.329.283-.65.43-.973.372-.82.747-1.64 1.123-2.46.206-.45.42-.894.626-1.344.347-.758.688-1.52 1.034-2.279.202-.44.41-.878.613-1.318l1.13-2.457a21774.77 21774.77 0 0 0 2.043-4.444l.281-.614c.198.143.4.282.592.432.457.357.909.72 1.363 1.08a2611.754 2611.754 0 0 0 5.831 4.611l1.364 1.08 1.343 1.062.684.536c0 .02.003.041.005.062a.919.919 0 0 1-.082.083c-.315.249-.63.497-.947.745l-.947.745c-.399.316-.796.634-1.196.95-.314.25-.63.496-.946.745l-1.037.822c-.319.252-.64.503-.958.755l-1.194.952-.934.742-1.06.836-.934.741-1.06.838-.935.738c-.35.277-.702.55-1.049.83-.313.252-.643.473-1.029.598-.197.063-.398.118-.597.178h-1.01c-.1-.035-.199-.074-.3-.104a3.452 3.452 0 0 1-1.556-.96 3.212 3.212 0 0 1-.677-1.095c-.066-.178-.117-.365-.174-.547v-1.011z" fill="#0F5E94"/>
    <path d="m18.621 28.702-.004-.062c.169-.125.342-.245.507-.375a2156.368 2156.368 0 0 0 4.486-3.55l1.517-1.202c.487-.385.977-.766 1.464-1.15.502-.397 1.004-.795 1.505-1.195l1.495-1.183c.073-.057.155-.1.233-.151l.985 2.141c.387.844.774 1.687 1.16 2.532l1.014 2.21.977 2.129 1.16 2.531 1.009 2.196c.297.652.603 1.301.887 1.96.107.248.164.518.244.778v.922c-.018.082-.025.168-.056.244-.13.316-.238.646-.409.939-.364.628-.905 1.07-1.576 1.343-.244.099-.502.161-.754.24h-1.011c-.03-.02-.06-.05-.093-.057a3.067 3.067 0 0 1-1.274-.584c-.444-.34-.877-.695-1.317-1.041-.5-.395-1.004-.786-1.503-1.182-.6-.476-1.194-.959-1.795-1.433-.724-.572-1.453-1.136-2.177-1.707-.813-.64-1.624-1.284-2.434-1.928-.741-.59-1.48-1.183-2.222-1.771-.67-.533-1.342-1.065-2.018-1.594z" fill="#9FA7AD"/>
    <path d="m57.63 30-1.862-5.286H48.49L46.628 30h-3.295l7.084-19.114h3.463L60.95 30h-3.32zm-2.67-7.969-1.809-5.208a224.062 224.062 0 0 1-.69-2.214l-.326-1.093c-.086.356-.195.755-.325 1.198-.122.434-.243.842-.365 1.223l-.26.886-1.823 5.208h5.599zM67.995 30.26c-1.719 0-3.1-.625-4.14-1.875-1.034-1.258-1.55-3.112-1.55-5.56 0-2.473.525-4.344 1.575-5.611 1.06-1.268 2.452-1.901 4.18-1.901.729 0 1.367.1 1.914.299a4.404 4.404 0 0 1 1.406.781c.4.33.738.7 1.016 1.107h.143c-.043-.27-.095-.655-.156-1.159a14.096 14.096 0 0 1-.078-1.42V9.74h3.073V30h-2.396l-.547-1.966h-.13a4.86 4.86 0 0 1-.99 1.133c-.39.33-.86.594-1.406.794-.538.2-1.176.3-1.914.3zm.86-2.487c1.31 0 2.234-.377 2.773-1.132.538-.755.816-1.888.833-3.399v-.403c0-1.615-.26-2.852-.781-3.711-.521-.868-1.472-1.302-2.852-1.302-1.102 0-1.944.447-2.526 1.34-.573.886-.86 2.123-.86 3.712 0 1.588.287 2.803.86 3.645.582.834 1.432 1.25 2.552 1.25z" fill="#088ED9"/>
    <path d="M87.552 27.787c.4 0 .794-.035 1.185-.105a9.54 9.54 0 0 0 1.068-.273v2.318c-.339.147-.777.273-1.315.377a8.828 8.828 0 0 1-1.68.156c-.816 0-1.55-.134-2.2-.403-.652-.278-1.168-.751-1.55-1.42-.382-.668-.573-1.592-.573-2.773v-7.747h-1.966v-1.368l2.11-1.08 1.002-3.086h1.927v3.203h4.127v2.33H85.56v7.709c0 .73.182 1.272.547 1.628.364.355.846.534 1.445.534zM100.039 15.313a8.784 8.784 0 0 1 1.537.143l-.287 2.864a3.866 3.866 0 0 0-.677-.117 7.141 7.141 0 0 0-.703-.039c-.547 0-1.068.091-1.563.273a3.62 3.62 0 0 0-1.315.808 3.684 3.684 0 0 0-.898 1.34c-.217.54-.326 1.164-.326 1.876V30h-3.073V15.586h2.396l.417 2.539h.143c.287-.512.642-.98 1.068-1.406a5.008 5.008 0 0 1 1.458-1.016 4.241 4.241 0 0 1 1.823-.39zM109.896 15.313c1.823 0 3.199.403 4.127 1.21.938.808 1.407 2.066 1.407 3.776V30h-2.175l-.586-2.044h-.104a7.44 7.44 0 0 1-1.263 1.289c-.434.338-.937.59-1.51.755-.565.174-1.255.26-2.071.26-.859 0-1.627-.156-2.304-.468a3.666 3.666 0 0 1-1.602-1.459c-.391-.65-.586-1.475-.586-2.474 0-1.484.551-2.6 1.654-3.346 1.111-.747 2.786-1.159 5.026-1.237l2.5-.091v-.755c0-.999-.235-1.71-.703-2.136-.46-.425-1.111-.638-1.953-.638-.721 0-1.42.104-2.097.313a14.79 14.79 0 0 0-1.979.768l-.99-2.161a11.12 11.12 0 0 1 2.396-.912 11.153 11.153 0 0 1 2.813-.351zm2.5 7.799-1.862.065c-1.528.052-2.6.313-3.216.781-.617.47-.925 1.111-.925 1.927 0 .712.213 1.233.638 1.563.426.321.985.482 1.68.482 1.059 0 1.936-.3 2.63-.899.703-.607 1.055-1.497 1.055-2.669v-1.25zM125.521 30.26c-1.363 0-2.544-.264-3.542-.794-.998-.53-1.766-1.341-2.305-2.435-.538-1.093-.807-2.482-.807-4.166 0-1.754.295-3.186.886-4.297.59-1.111 1.406-1.932 2.448-2.461 1.05-.53 2.252-.794 3.606-.794.86 0 1.637.086 2.331.26.703.165 1.298.369 1.784.612l-.912 2.448c-.529-.217-1.072-.4-1.627-.547a6.244 6.244 0 0 0-1.602-.221c-.842 0-1.545.186-2.109.56-.556.373-.972.928-1.25 1.666-.269.738-.404 1.654-.404 2.747 0 1.06.139 1.954.417 2.683.278.72.69 1.267 1.237 1.64.547.365 1.219.547 2.018.547.79 0 1.497-.095 2.122-.286a9.4 9.4 0 0 0 1.771-.742v2.656a6.557 6.557 0 0 1-1.757.69c-.625.156-1.394.234-2.305.234zM138.711 15.313c1.285 0 2.387.264 3.307.794.92.53 1.628 1.28 2.123 2.252.494.973.742 2.136.742 3.49v1.64h-9.623c.035 1.398.408 2.474 1.12 3.23.721.755 1.728 1.133 3.021 1.133.92 0 1.745-.087 2.474-.26a13.752 13.752 0 0 0 2.279-.795v2.487a9.966 9.966 0 0 1-2.201.742c-.746.156-1.641.234-2.682.234-1.415 0-2.661-.273-3.737-.82-1.068-.556-1.906-1.38-2.513-2.474-.599-1.094-.899-2.452-.899-4.075 0-1.615.274-2.986.821-4.115.547-1.128 1.315-1.988 2.304-2.578.99-.59 2.144-.886 3.464-.886zm0 2.304c-.964 0-1.745.313-2.344.938-.59.625-.937 1.54-1.041 2.747h6.562c-.009-.72-.13-1.358-.365-1.914a2.77 2.77 0 0 0-1.041-1.302c-.46-.313-1.051-.469-1.771-.469z" fill="#fff" fill-opacity=".5"/>
</svg>
